# xmcd
# 
# Track frame offsets:
#     150
#     14764
#     32474
#     49610
#     63358
#     79812
#     95292
#     105814
#     125030
#     143008
#     153568
#     172484
#     191693
#     215293
#     231333
#     254553
#     269553
# 
# Disc length: 3818
# 
# Revision: 3
# Processed by: cddbd v1.5.2PL0 Copyright (c) Steve Scherf et al.
# Submitted via: fre:ac v1.0.31
# 
DISCID=f30ee811
DTITLE=Country - Boots, Buckles and Spurs Disc 3
DYEAR=2008
DGENRE=Country
TTITLE0=An American Cowboy
TTITLE1=Even Cowgirls Get the Blues
TTITLE2=Ropin' Pen
TTITLE3=Cowpoke
TTITLE4=Mesquite Cowboy Mind
TTITLE5=No Ordinary Man
TTITLE6=Farr Away Stomp (A Tribute To Our Four Legged Friends)
TTITLE7=I Can Still Make Cheyenne
TTITLE8=When Cowboys Didn't Dance
TTITLE9=That Buckin' Song
TTITLE10=One Ride In Vegas
TTITLE11=Bull Ridin' Son of a Gun
TTITLE12=Wanted Dead or Alive
TTITLE13=Cowboy and Clown
TTITLE14=Good Horses To Ride
TTITLE15=Cowboy Town
TTITLE16=Born To Buck Bad Luck
EXTD=
EXTT0=
EXTT1=
EXTT2=
EXTT3=
EXTT4=
EXTT5=
EXTT6=
EXTT7=
EXTT8=
EXTT9=
EXTT10=
EXTT11=
EXTT12=
EXTT13=
EXTT14=
EXTT15=
EXTT16=
PLAYORDER=
